{"accessors" : [{"bufferView" : 0, "byteOffset" : 0, "componentType" : 5123, "count" : 10212, "type" : "SCALAR", "max" : [1858], "min" : [0]}, {"bufferView" : 1, "byteOffset" : 0, "componentType" : 5126, "count" : 1859, "type" : "VEC3", "max" : [24.8470001220703, 49.9429016113281, 24.8469009399414], "min" : [-24.8470001220703, 0.0570698007941246, -24.8469009399414]}, {"bufferView" : 1, "byteOffset" : 12, "componentType" : 5126, "count" : 1859, "type" : "VEC3", "max" : [0.999704003334045, 1.00000441074371, 0.999485492706299], "min" : [-0.999704003334045, -1.00000441074371, -0.999702930450439]}, {"bufferView" : 1, "byteOffset" : 24, "componentType" : 5126, "count" : 1859, "type" : "VEC2", "max" : [0.982118010520935, -0.0117944004014134], "min" : [0.0178820006549358, -0.983229994773865]}, {"bufferView" : 0, "byteOffset" : 20424, "componentType" : 5123, "count" : 7110, "type" : "SCALAR", "max" : [1244], "min" : [0]}, {"bufferView" : 2, "byteOffset" : 0, "componentType" : 5126, "count" : 1245, "type" : "VEC3", "max" : [18.1893997192383, 43.1204986572266, 24.8572006225586], "min" : [-18.1893997192383, 23.9715003967285, 13.9928998947144]}, {"bufferView" : 2, "byteOffset" : 12, "componentType" : 5126, "count" : 1245, "type" : "VEC3", "max" : [0.731289207935333, 0.726108074188232, 0.999781429767609], "min" : [-0.731288254261017, -0.0512078441679478, 0.565785229206085]}, {"bufferView" : 2, "byteOffset" : 24, "componentType" : 5126, "count" : 1245, "type" : "VEC2", "max" : [0.487217009067535, -1.75522994995117], "min" : [0.0127833001315594, -1.99533998966217]}], "asset" : {"generator" : "Aspose.3D 20.2.1", "version" : "2.0"}, "buffers" : [{"uri" : "buffer.bin", "byteLength" : 133984}], "bufferViews" : [{"buffer" : 0, "byteOffset" : 0, "byteLength" : 34644, "target" : 34963}, {"buffer" : 0, "byteOffset" : 34648, "byteLength" : 59488, "byteStride" : 32, "target" : 34962}, {"buffer" : 0, "byteOffset" : 94140, "byteLength" : 39840, "byteStride" : 32, "target" : 34962}], "meshes" : [{"primitives" : [{"attributes" : {"POSITION" : 1, "NORMAL" : 2, "TEXCOORD_0" : 3}, "indices" : 0, "mode" : 4}]}, {"primitives" : [{"attributes" : {"POSITION" : 5, "NORMAL" : 6, "TEXCOORD_0" : 7}, "indices" : 4, "mode" : 4}]}], "nodes" : [{"mesh" : 0, "name" : "vsn_mesh_0_pm0100_00_Skin"}, {"mesh" : 1, "name" : "vsn_mesh_1_pm0100_00_Skin"}], "scene" : 0, "scenes" : [{"nodes" : [0, 1]}]}