{"accessors" : [{"bufferView" : 0, "byteOffset" : 0, "componentType" : 5123, "count" : 12582, "type" : "SCALAR", "max" : [2499], "min" : [0]}, {"bufferView" : 1, "byteOffset" : 0, "componentType" : 5126, "count" : 2500, "type" : "VEC3", "max" : [17.0453033447266, 30.2858009338379, 51.3235054016113], "min" : [-17.0452995300293, -16.3621997833252, -0.0146759999915957]}, {"bufferView" : 1, "byteOffset" : 12, "componentType" : 5126, "count" : 2500, "type" : "VEC3", "max" : [1.00000417232513, 0.999891698360443, 0.99992299079895], "min" : [-1.00000417232513, -0.999666690826416, -1.00000441074371]}, {"bufferView" : 1, "byteOffset" : 24, "componentType" : 5126, "count" : 2500, "type" : "VEC2", "max" : [1, -0.00446699978783727], "min" : [0, -0.994431972503662]}, {"bufferView" : 0, "byteOffset" : 25164, "componentType" : 5123, "count" : 390, "type" : "SCALAR", "max" : [87], "min" : [0]}, {"bufferView" : 2, "byteOffset" : 0, "componentType" : 5126, "count" : 88, "type" : "VEC3", "max" : [10.0815000534058, -4.78455018997192, 36.5186996459961], "min" : [-10.0815000534058, -12.1459007263184, 29.9076995849609]}, {"bufferView" : 2, "byteOffset" : 12, "componentType" : 5126, "count" : 88, "type" : "VEC3", "max" : [0.995408713817596, -0.0320063792169094, 0.627034604549408], "min" : [-0.995408713817596, -0.83580881357193, -0.364441782236099]}, {"bufferView" : 2, "byteOffset" : 24, "componentType" : 5126, "count" : 88, "type" : "VEC2", "max" : [0.987559974193573, -3.77724003791809], "min" : [0.0124399997293949, -3.97272992134094]}, {"bufferView" : 0, "byteOffset" : 25944, "componentType" : 5123, "count" : 336, "type" : "SCALAR", "max" : [71], "min" : [0]}, {"bufferView" : 3, "byteOffset" : 0, "componentType" : 5126, "count" : 72, "type" : "VEC3", "max" : [5.83320999145508, -11.1478996276855, 37.8518981933594], "min" : [-5.83320999145508, -14.4412002563477, 29.8521995544434]}, {"bufferView" : 3, "byteOffset" : 12, "componentType" : 5126, "count" : 72, "type" : "VEC3", "max" : [0.603402495384216, -0.205243140459061, 0.978715419769287], "min" : [-0.603402495384216, -0.999702394008636, -0.419738590717316]}, {"bufferView" : 3, "byteOffset" : 24, "componentType" : 5126, "count" : 72, "type" : "VEC2", "max" : [0.425770044326782, -2.75605010986328], "min" : [0.0742329955101013, -2.99434995651245]}, {"bufferView" : 0, "byteOffset" : 26616, "componentType" : 5123, "count" : 192, "type" : "SCALAR", "max" : [49], "min" : [0]}, {"bufferView" : 4, "byteOffset" : 0, "componentType" : 5126, "count" : 50, "type" : "VEC3", "max" : [7.7298698425293, -6.80332899093628, 41.5664978027344], "min" : [-7.7298698425293, -12.2639999389648, 36.1456985473633]}, {"bufferView" : 4, "byteOffset" : 12, "componentType" : 5126, "count" : 50, "type" : "VEC3", "max" : [0.746824204921722, -0.355569779872894, 0.869500160217285], "min" : [-0.746824264526367, -0.784034907817841, 0.420404046773911]}, {"bufferView" : 4, "byteOffset" : 24, "componentType" : 5126, "count" : 50, "type" : "VEC2", "max" : [0.493819952011108, -1.76628005504608], "min" : [0.00617599487304688, -1.98585999011993]}], "asset" : {"generator" : "Aspose.3D 20.2.1", "version" : "2.0"}, "buffers" : [{"uri" : "buffer.bin", "byteLength" : 113740}], "bufferViews" : [{"buffer" : 0, "byteOffset" : 0, "byteLength" : 27000, "target" : 34963}, {"buffer" : 0, "byteOffset" : 27004, "byteLength" : 80000, "byteStride" : 32, "target" : 34962}, {"buffer" : 0, "byteOffset" : 107008, "byteLength" : 2816, "byteStride" : 32, "target" : 34962}, {"buffer" : 0, "byteOffset" : 109828, "byteLength" : 2304, "byteStride" : 32, "target" : 34962}, {"buffer" : 0, "byteOffset" : 112136, "byteLength" : 1600, "byteStride" : 32, "target" : 34962}], "materials" : [{"pbrMetallicRoughness" : {"baseColorFactor" : [0.587999999523163, 0.587999999523163, 0.587999999523163, 1], "metallicFactor" : 0, "roughnessFactor" : 0}, "emissiveFactor" : [0, 0, 0], "alphaMode" : "OPAQUE", "doubleSided" : false}, {"pbrMetallicRoughness" : {"baseColorFactor" : [0.587999999523163, 0.587999999523163, 0.587999999523163, 1], "metallicFactor" : 0, "roughnessFactor" : 0}, "emissiveFactor" : [0, 0, 0], "alphaMode" : "OPAQUE", "doubleSided" : false}, {"pbrMetallicRoughness" : {"baseColorFactor" : [0.587999999523163, 0.587999999523163, 0.587999999523163, 1], "metallicFactor" : 0, "roughnessFactor" : 0}, "emissiveFactor" : [0, 0, 0], "alphaMode" : "OPAQUE", "doubleSided" : false}, {"pbrMetallicRoughness" : {"baseColorFactor" : [0.587999999523163, 0.587999999523163, 0.587999999523163, 1], "metallicFactor" : 0, "roughnessFactor" : 0}, "emissiveFactor" : [0, 0, 0], "alphaMode" : "OPAQUE", "doubleSided" : false}], "meshes" : [{"primitives" : [{"attributes" : {"POSITION" : 1, "NORMAL" : 2, "TEXCOORD_0" : 3}, "indices" : 0, "material" : 0, "mode" : 4}, {"attributes" : {"POSITION" : 5, "NORMAL" : 6, "TEXCOORD_0" : 7}, "indices" : 4, "material" : 1, "mode" : 4}, {"attributes" : {"POSITION" : 9, "NORMAL" : 10, "TEXCOORD_0" : 11}, "indices" : 8, "material" : 2, "mode" : 4}, {"attributes" : {"POSITION" : 13, "NORMAL" : 14, "TEXCOORD_0" : 15}, "indices" : 12, "material" : 3, "mode" : 4}]}], "nodes" : [{"matrix" : [1, 0, 0, 0, 0, 2.22044604925031E-16, -1, 0, 0, 1, 2.22044604925031E-16, 0, 0, 0, 0, 1], "mesh" : 0, "name" : "PikachuM"}], "scene" : 0, "scenes" : [{"nodes" : [0]}]}