{"accessors" : [{"bufferView" : 0, "byteOffset" : 0, "componentType" : 5123, "count" : 684, "type" : "SCALAR", "max" : [179], "min" : [0]}, {"bufferView" : 1, "byteOffset" : 0, "componentType" : 5126, "count" : 180, "type" : "VEC3", "max" : [10.3478002548218, 2.86125993728638, 129.917999267578], "min" : [-10.3478002548218, -10.6365995407104, 122.124000549316]}, {"bufferView" : 1, "byteOffset" : 12, "componentType" : 5126, "count" : 180, "type" : "VEC3", "max" : [0.999616086483002, 0.950578093528748, 0.316516220569611], "min" : [-0.999616086483002, -0.950578093528748, -0.316516220569611]}, {"bufferView" : 1, "byteOffset" : 24, "componentType" : 5126, "count" : 180, "type" : "VEC2", "max" : [0.99441397190094, -0.017730999737978], "min" : [0.0141780003905296, -0.983763992786407]}, {"bufferView" : 0, "byteOffset" : 1368, "componentType" : 5123, "count" : 1236, "type" : "SCALAR", "max" : [438], "min" : [0]}, {"bufferView" : 2, "byteOffset" : 0, "componentType" : 5126, "count" : 439, "type" : "VEC3", "max" : [15.8345003128052, 21.766300201416, 107.389999389648], "min" : [-11.3653001785278, -8.30881977081299, 55.5196990966797]}, {"bufferView" : 2, "byteOffset" : 12, "componentType" : 5126, "count" : 439, "type" : "VEC3", "max" : [0.989132285118103, 0.960305154323578, 0.976027309894562], "min" : [-0.999829947948456, -0.96005392074585, -0.996064364910126]}, {"bufferView" : 2, "byteOffset" : 24, "componentType" : 5126, "count" : 439, "type" : "VEC2", "max" : [0.991512000560761, -0.00948300026357174], "min" : [0.00256599998101592, -0.977473974227905]}, {"bufferView" : 0, "byteOffset" : 3840, "componentType" : 5123, "count" : 288, "type" : "SCALAR", "max" : [95], "min" : [0]}, {"bufferView" : 3, "byteOffset" : 0, "componentType" : 5126, "count" : 96, "type" : "VEC3", "max" : [44.502498626709, 4.45463991165161, 106.741996765137], "min" : [40.4276008605957, -3.54104995727539, 98.6461029052734]}, {"bufferView" : 3, "byteOffset" : 12, "componentType" : 5126, "count" : 96, "type" : "VEC3", "max" : [0.959748685359955, 0.910506784915924, 0.910522103309631], "min" : [-0.945870161056519, -0.910494387149811, -0.911228358745575]}, {"bufferView" : 3, "byteOffset" : 24, "componentType" : 5126, "count" : 96, "type" : "VEC2", "max" : [0.760719001293182, -0.00153400003910065], "min" : [0.0740550011396408, -0.989762008190155]}, {"bufferView" : 0, "byteOffset" : 4416, "componentType" : 5123, "count" : 1026, "type" : "SCALAR", "max" : [207], "min" : [0]}, {"bufferView" : 4, "byteOffset" : 0, "componentType" : 5126, "count" : 208, "type" : "VEC3", "max" : [11.6970996856689, 7.20131015777588, 72.5718994140625], "min" : [-11.6970996856689, -7.67735004425049, 21.2945995330811]}, {"bufferView" : 4, "byteOffset" : 12, "componentType" : 5126, "count" : 208, "type" : "VEC3", "max" : [0.999949395656586, 0.996517360210419, 0.257723242044449], "min" : [-0.999949395656586, -0.999414443969727, -0.997212111949921]}, {"bufferView" : 4, "byteOffset" : 24, "componentType" : 5126, "count" : 208, "type" : "VEC2", "max" : [0.96289199590683, -0.442961007356644], "min" : [0.0328329987823963, -0.990638971328735]}, {"bufferView" : 0, "byteOffset" : 6468, "componentType" : 5123, "count" : 1446, "type" : "SCALAR", "max" : [325], "min" : [0]}, {"bufferView" : 5, "byteOffset" : 0, "componentType" : 5126, "count" : 326, "type" : "VEC3", "max" : [8.67475032806396, 2.37809991836548, 119.734001159668], "min" : [-8.67475032806396, -10.0331001281738, 109.049003601074]}, {"bufferView" : 5, "byteOffset" : 12, "componentType" : 5126, "count" : 326, "type" : "VEC3", "max" : [0.999796092510223, 0.998138606548309, 0.985982596874237], "min" : [-0.999796092510223, -0.996149182319641, -0.999417006969452]}, {"bufferView" : 5, "byteOffset" : 24, "componentType" : 5126, "count" : 326, "type" : "VEC2", "max" : [0.99344801902771, -0.0216840002685785], "min" : [0.0256799999624491, -0.652597010135651]}, {"bufferView" : 0, "byteOffset" : 9360, "componentType" : 5123, "count" : 336, "type" : "SCALAR", "max" : [97], "min" : [0]}, {"bufferView" : 6, "byteOffset" : 0, "componentType" : 5126, "count" : 98, "type" : "VEC3", "max" : [8.30552959442139, -0.967025995254517, 124.512001037598], "min" : [-8.30552959442139, -8.96879959106445, 114.310997009277]}, {"bufferView" : 6, "byteOffset" : 12, "componentType" : 5126, "count" : 98, "type" : "VEC3", "max" : [0.987658679485321, 0.288105189800262, 0.283979177474976], "min" : [-0.987658679485321, -0.999840199947357, -0.453079879283905]}, {"bufferView" : 6, "byteOffset" : 24, "componentType" : 5126, "count" : 98, "type" : "VEC2", "max" : [0.238268002867699, 0.454317986965179], "min" : [0.0103529999032617, 0.036531001329422]}, {"bufferView" : 0, "byteOffset" : 10032, "componentType" : 5123, "count" : 1983, "type" : "SCALAR", "max" : [555], "min" : [0]}, {"bufferView" : 7, "byteOffset" : 0, "componentType" : 5126, "count" : 556, "type" : "VEC3", "max" : [10.7204999923706, 11.5055999755859, 124.375], "min" : [-10.5375995635986, -9.15279006958008, 108.122001647949]}, {"bufferView" : 7, "byteOffset" : 12, "componentType" : 5126, "count" : 556, "type" : "VEC3", "max" : [0.998741447925568, 0.995808184146881, 0.486457318067551], "min" : [-0.997257590293884, -0.981948912143707, -0.992144882678986]}, {"bufferView" : 7, "byteOffset" : 24, "componentType" : 5126, "count" : 556, "type" : "VEC2", "max" : [0.987824022769928, -0.0147660002112389], "min" : [0.0222139991819859, -0.906264007091522]}, {"bufferView" : 0, "byteOffset" : 14000, "componentType" : 5123, "count" : 636, "type" : "SCALAR", "max" : [165], "min" : [0]}, {"bufferView" : 8, "byteOffset" : 0, "componentType" : 5126, "count" : 166, "type" : "VEC3", "max" : [10.2481002807617, 11.1037998199463, 133.695007324219], "min" : [-10.2524995803833, -15.2958002090454, 120.845001220703]}, {"bufferView" : 8, "byteOffset" : 12, "componentType" : 5126, "count" : 166, "type" : "VEC3", "max" : [0.999109387397766, 0.996657192707062, 0.999587655067444], "min" : [-0.99910980463028, -0.993429958820343, -0.994264662265778]}, {"bufferView" : 8, "byteOffset" : 24, "componentType" : 5126, "count" : 166, "type" : "VEC2", "max" : [0.912361979484558, -0.00771400006487966], "min" : [0.0237930007278919, -0.986615002155304]}, {"bufferView" : 0, "byteOffset" : 15272, "componentType" : 5123, "count" : 1704, "type" : "SCALAR", "max" : [569], "min" : [0]}, {"bufferView" : 9, "byteOffset" : 0, "componentType" : 5126, "count" : 570, "type" : "VEC3", "max" : [10.8515996932983, 7.81996011734009, 24.600700378418], "min" : [-10.8515996932983, -14.6387996673584, 0.0348850004374981]}, {"bufferView" : 9, "byteOffset" : 12, "componentType" : 5126, "count" : 570, "type" : "VEC3", "max" : [0.999646127223969, 0.999918580055237, 1.00000441074371], "min" : [-0.999646127223969, -0.999012589454651, -1.00000441074371]}, {"bufferView" : 9, "byteOffset" : 24, "componentType" : 5126, "count" : 570, "type" : "VEC2", "max" : [0.978201985359192, -0.0175999999046326], "min" : [0.01978600025177, -0.9862419962883]}, {"bufferView" : 0, "byteOffset" : 18680, "componentType" : 5123, "count" : 4164, "type" : "SCALAR", "max" : [961], "min" : [0]}, {"bufferView" : 10, "byteOffset" : 0, "componentType" : 5126, "count" : 962, "type" : "VEC3", "max" : [59.6977005004883, 7.61857986450195, 113.56600189209], "min" : [-59.6977005004883, -8.01121044158936, 69.4425964355469]}, {"bufferView" : 10, "byteOffset" : 12, "componentType" : 5126, "count" : 962, "type" : "VEC3", "max" : [0.999935209751129, 0.999975502490997, 0.999660551548004], "min" : [-0.999935209751129, -1.00000393390656, -0.999404966831207]}, {"bufferView" : 10, "byteOffset" : 24, "componentType" : 5126, "count" : 962, "type" : "VEC2", "max" : [0.987473011016846, -0.0123920002952218], "min" : [0.0112680001184344, -0.99296897649765]}], "asset" : {"generator" : "Aspose.3D 20.2.1", "version" : "2.0"}, "buffers" : [{"uri" : "buffer.bin", "byteLength" : 142284}], "bufferViews" : [{"buffer" : 0, "byteOffset" : 0, "byteLength" : 27008, "target" : 34963}, {"buffer" : 0, "byteOffset" : 27012, "byteLength" : 5760, "byteStride" : 32, "target" : 34962}, {"buffer" : 0, "byteOffset" : 32776, "byteLength" : 14048, "byteStride" : 32, "target" : 34962}, {"buffer" : 0, "byteOffset" : 46828, "byteLength" : 3072, "byteStride" : 32, "target" : 34962}, {"buffer" : 0, "byteOffset" : 49904, "byteLength" : 6656, "byteStride" : 32, "target" : 34962}, {"buffer" : 0, "byteOffset" : 56564, "byteLength" : 10432, "byteStride" : 32, "target" : 34962}, {"buffer" : 0, "byteOffset" : 67000, "byteLength" : 3136, "byteStride" : 32, "target" : 34962}, {"buffer" : 0, "byteOffset" : 70140, "byteLength" : 17792, "byteStride" : 32, "target" : 34962}, {"buffer" : 0, "byteOffset" : 87936, "byteLength" : 5312, "byteStride" : 32, "target" : 34962}, {"buffer" : 0, "byteOffset" : 93252, "byteLength" : 18240, "byteStride" : 32, "target" : 34962}, {"buffer" : 0, "byteOffset" : 111496, "byteLength" : 30784, "byteStride" : 32, "target" : 34962}], "meshes" : [{"primitives" : [{"attributes" : {"POSITION" : 1, "NORMAL" : 2, "TEXCOORD_0" : 3}, "indices" : 0, "mode" : 4}, {"attributes" : {"POSITION" : 5, "NORMAL" : 6, "TEXCOORD_0" : 7}, "indices" : 4, "mode" : 4}, {"attributes" : {"POSITION" : 9, "NORMAL" : 10, "TEXCOORD_0" : 11}, "indices" : 8, "mode" : 4}, {"attributes" : {"POSITION" : 13, "NORMAL" : 14, "TEXCOORD_0" : 15}, "indices" : 12, "mode" : 4}, {"attributes" : {"POSITION" : 17, "NORMAL" : 18, "TEXCOORD_0" : 19}, "indices" : 16, "mode" : 4}, {"attributes" : {"POSITION" : 21, "NORMAL" : 22, "TEXCOORD_0" : 23}, "indices" : 20, "mode" : 4}, {"attributes" : {"POSITION" : 25, "NORMAL" : 26, "TEXCOORD_0" : 27}, "indices" : 24, "mode" : 4}, {"attributes" : {"POSITION" : 29, "NORMAL" : 30, "TEXCOORD_0" : 31}, "indices" : 28, "mode" : 4}, {"attributes" : {"POSITION" : 33, "NORMAL" : 34, "TEXCOORD_0" : 35}, "indices" : 32, "mode" : 4}, {"attributes" : {"POSITION" : 37, "NORMAL" : 38, "TEXCOORD_0" : 39}, "indices" : 36, "mode" : 4}]}], "nodes" : [{"mesh" : 0, "name" : "Calem"}], "scene" : 0, "scenes" : [{"nodes" : [0]}]}